<?xml version="1.0" standalone="yes"?>

<svg version="1.1" viewBox="0.0 0.0 162.98950131233596 183.92125984251967" fill="none" stroke="none" stroke-linecap="square" stroke-miterlimit="10" xmlns="http://www.w3.org/2000/svg" xmlns:xlink="http://www.w3.org/1999/xlink"><clipPath id="p.0"><path d="m0 0l162.9895 0l0 183.92126l-162.9895 0l0 -183.92126z" clip-rule="nonzero"></path></clipPath><g clip-path="url(#p.0)"><path fill="#000000" fill-opacity="0.0" d="m0 0l162.9895 0l0 183.92126l-162.9895 0z" fill-rule="nonzero"></path><path fill="#414349" d="m81.7466 6.0551214l64.12599 88.62992l-64.62993 83.18111l-64.125984 -88.62993z" fill-rule="nonzero"></path><path fill="#000000" fill-opacity="0.0" d="m40.228607 38.955906l49.259842 0l0 73.25984l-49.259842 0z" fill-rule="nonzero"></path><path fill="#ffffff" d="m65.1847 56.133404q3.3125 0 5.625 2.453125q1.078125 -0.125 1.71875 -1.8125l0.609375 0l-0.140625 8.343746q0 0 -0.8125 0q-0.125 -1.4999962 -0.34375 -2.8593712q-0.21875 -1.359375 -0.9375 -2.34375q-2.03125 -2.96875 -5.8125 -2.96875q-2.015625 0 -3.4375 1.578125q-1.40625 1.5625 -1.40625 3.234375q0 1.8125 1.71875 3.4062462q1.71875 1.578125 4.546875 2.609375q3.90625 1.46875 6.296875 3.75q2.390625 2.265625 2.390625 5.109375q0 3.65625 -2.40625 5.9375q-2.40625 2.265625 -8.0 2.265625q-1.203125 0 -2.328125 -0.265625q-1.109375 -0.25 -1.828125 -0.625q-0.703125 -0.390625 -1.375 -0.796875q-0.65625 -0.421875 -0.953125 -0.671875q-0.859375 0.390625 -1.59375 1.765625l-0.90625 0l0.09375 -7.828125l0.859375 0q0.734375 3.53125 2.515625 5.46875q1.78125 1.921875 5.34375 1.921875q6.015625 0 6.015625 -5.796875q0 -3.78125 -6.359375 -6.015625q-3.4375 -1.203125 -5.421875 -3.40625q-1.96875 -2.21875 -1.96875 -4.718746q-0.046875 -7.734375 8.296875 -7.734375z" fill-rule="nonzero"></path><path fill="#000000" fill-opacity="0.0" d="m107.79178 55.585526l-52.598427 67.59055" fill-rule="nonzero"></path><path stroke="#ffffff" stroke-width="2.0" stroke-linejoin="round" stroke-linecap="butt" d="m107.79178 55.585526l-52.598427 67.59055" fill-rule="nonzero"></path><path fill="#000000" fill-opacity="0.0" d="m77.75013 86.10184l38.645668 0l0 61.637802l-38.645668 0z" fill-rule="nonzero"></path><path fill="#ffffff" d="m91.07492 131.8106l-1.671875 0q0 0 -8.125 -22.343758q-1.0625 -2.828125 -2.53125 -3.5625q-1.078125 -0.515625 -2.40625 -0.8125l0 -0.65625q2.015625 0.171875 6.53125 0.171875q4.9375 0 6.828125 -0.171875l0 0.859375q-0.546875 0.046875 -1.96875 0.390625q-1.421875 0.34375 -1.546875 0.609375q-0.21875 0.46875 -0.21875 1.328125q0 1.203125 0.4375 2.484375q0.8125 2.375 1.796875 5.015625q0.984375 2.640625 2.078125 5.453125q1.109375 2.8125 1.53125 3.96875q2.0625 -5.625 5.15625 -15.5l1.546875 -5.03125l1.125 0.046875q0.71875 2.875 3.859375 10.765625q3.140625 7.875 4.078125 10.578125q0.3125 -0.984375 1.9375 -5.765625q1.640625 -4.796875 2.796875 -8.484375q1.15625 -3.703125 1.15625 -4.34375q0 -0.609375 -0.90625 -0.953125l-2.578125 -0.6875l0 -0.640625q2.03125 0.171875 4.515625 0.171875q2.53125 0 4.46875 -0.171875l0 0.859375q-1.765625 0.078125 -2.875 0.734375q-0.390625 0.25 -1.03125 1.28125l-0.6875 0.984375q-0.859375 2.71875 -2.4375 7.453125q-1.5625 4.71875 -2.796875 8.59375q-1.21875 3.8593826 -2.25 7.3750076l-1.453125 0q-0.859375 -2.65625 -2.21875 -6.0312576q-1.34375 -3.375 -3.109375 -7.4375q-1.765625 -4.0625 -2.5 -5.828125q-0.46875 1.546875 -3.03125 8.765625q-2.546875 7.2187576 -3.5 10.531258z" fill-rule="nonzero"></path></g></svg>

